<svg width="128" height="60" fill="none" xmlns="http://www.w3.org/2000/svg"><g filter="url(#a)"><rect x="14" y="11" width="100" height="32" rx="16" fill="#fff"/></g><path d="m26.837 31.5.868-2.502h3.693l.864 2.502h1.514l-3.402-9.454h-1.648L25.323 31.5h1.514Zm1.284-3.702 1.394-4.035h.074l1.394 4.035h-2.862Zm6.91 3.702h1.38v-2.834h.895l2.138 2.834h1.712l-2.779-3.642 2.747-3.449h-1.708l-2.34 2.973h-.665V24.41h-1.38V31.5Zm7.198 0h1.38v-2.834h.896l2.137 2.834h1.713l-2.78-3.642 2.747-3.449h-1.708l-2.34 2.973h-.665V24.41h-1.38V31.5Zm9.261.157c1.173 0 1.833-.596 2.096-1.127h.056v.97h1.348v-4.709c0-2.063-1.625-2.474-2.752-2.474-1.283 0-2.465.517-2.926 1.81l1.297.295c.203-.503.72-.988 1.648-.988.89 0 1.348.466 1.348 1.27v.032c0 .503-.517.494-1.791.642-1.344.156-2.72.507-2.72 2.118 0 1.395 1.048 2.161 2.396 2.161Zm.3-1.108c-.78 0-1.343-.35-1.343-1.034 0-.739.656-1.002 1.454-1.108.448-.06 1.51-.18 1.708-.379v.915c0 .84-.669 1.606-1.818 1.606Zm5.657 3.592c1.14 0 1.865-.596 2.271-1.695l2.932-8.023-1.491-.014-1.796 5.503h-.074l-1.796-5.503h-1.477l2.594 7.183-.17.471c-.351.919-.845 1.002-1.602.794l-.333 1.131c.166.079.526.153.942.153Zm7.856-9.732H63.95V31.5h1.353v-2.945h3.07V31.5h1.348v-7.09h-1.348v2.949h-3.07v-2.95Zm5.385 1.191h2.322v5.9h1.348v-5.9h2.313v-1.19h-5.983v1.19Z" fill="#222"/><rect x="85" y="14" width="26" height="26" rx="13" fill="#F5F5F5"/><path fill-rule="evenodd" clip-rule="evenodd" d="M99.43 28.968a3.75 3.75 0 1 0-2.86 0 8.614 8.614 0 0 0-3.761 1.613l1.381 1.838A6.317 6.317 0 0 1 98 31.15c1.431 0 2.749.472 3.81 1.27l1.382-1.84a8.617 8.617 0 0 0-3.762-1.612Z" fill="#000"/><defs><filter id="a" x="0" y="0" width="128" height="60" filterUnits="userSpaceOnUse" color-interpolation-filters="sRGB"><feFlood flood-opacity="0" result="BackgroundImageFix"/><feColorMatrix in="SourceAlpha" values="0 0 0 0 0 0 0 0 0 0 0 0 0 0 0 0 0 0 127 0" result="hardAlpha"/><feOffset dy="3"/><feGaussianBlur stdDeviation="7"/><feColorMatrix values="0 0 0 0 0 0 0 0 0 0 0 0 0 0 0 0 0 0 0.08 0"/><feBlend in2="BackgroundImageFix" result="effect1_dropShadow_1018_1967"/><feBlend in="SourceGraphic" in2="effect1_dropShadow_1018_1967" result="shape"/></filter></defs></svg>